<?xml version="1.0" standalone="no"?>
<!DOCTYPE svg PUBLIC "-//W3C//DTD SVG 20010904//EN"
 "http://www.w3.org/TR/2001/REC-SVG-20010904/DTD/svg10.dtd">
<svg version="1.0" xmlns="http://www.w3.org/2000/svg"
 width="96.000000pt" height="96.000000pt" viewBox="0 0 96.000000 96.000000"
 preserveAspectRatio="xMidYMid meet">
<metadata>
Created by potrace 1.14, written by Peter Selinger 2001-2017
</metadata>
<g transform="translate(0.000000,96.000000) scale(0.100000,-0.100000)"
fill="#000000" stroke="none">
<path d="M325 906 c-109 -34 -182 -96 -228 -194 -40 -86 -46 -189 -16 -266 12
-29 20 -71 19 -98 -1 -42 2 -48 20 -48 11 0 20 -1 20 -3 0 -2 -4 -28 -10 -58
-5 -30 -12 -69 -15 -86 -3 -18 -7 -47 -10 -64 -5 -27 -3 -30 16 -27 17 2 27
21 51 98 17 52 32 97 34 99 2 2 22 -6 46 -17 24 -12 64 -26 91 -33 42 -10 47
-14 48 -40 1 -16 3 -38 4 -49 1 -11 3 -29 4 -40 1 -24 40 -28 42 -5 1 8 3 20
4 25 1 6 3 30 4 55 1 33 5 45 16 45 26 0 127 38 145 55 20 18 22 14 63 -115
19 -60 29 -76 46 -78 11 -2 21 -2 21 0 0 3 -4 29 -10 59 -5 30 -12 70 -15 89
-3 19 -8 47 -11 63 -5 23 -2 27 16 27 19 0 21 5 19 49 -2 28 2 56 8 63 15 19
33 100 33 147 0 47 -2 46 64 26 65 -20 71 -19 84 10 11 24 6 29 -151 147 -89
67 -186 132 -216 146 -64 29 -173 37 -236 18z"/>
</g>
</svg>
